<svg width="727" height="707" viewBox="0 0 727 707" fill="none" xmlns="http://www.w3.org/2000/svg">
<path d="M212.631 705.47C198.262 711.781 183.478 697.468 189.095 682.683L250.633 520.702C255.16 508.787 270.231 505.378 279.35 514.206L375.24 607.042C384.359 615.871 381.64 631.239 370.06 636.326L212.631 705.47Z" fill="#FFB800"/>
<path fill-rule="evenodd" clip-rule="evenodd" d="M388.15 71.5522C354.486 71.5522 259.437 77.4581 259.437 130.869L264.465 269.777C264.465 297.69 267.465 342.788 265.844 388.062C264.223 433.336 230.492 514.182 153.852 514.182C77.2125 514.182 0 448.204 0 389.568C0 330.931 77.2125 264.455 153.852 264.455C166.785 264.455 178.503 266.348 189.047 269.777V116.413C189.047 24.2846 321.398 -3.10608 391.67 0.272919C469.478 2.43492 593.287 19.2876 593.287 119.902V196.47H521.891V123.89C521.891 75.7397 414.046 71.5522 388.15 71.5522Z" fill="#FFB800"/>
<path fill-rule="evenodd" clip-rule="evenodd" d="M79.2289 261.962C100.922 228.774 131.277 201.447 167.976 180.365L169.679 249.988C162.693 248.491 159.497 248.491 150.718 248.491H150.717C120.56 248.491 97.8531 253.804 79.2289 261.962ZM42.1709 391.202C42.1709 420.319 47.365 446.958 56.8274 471.107C83.4384 491.728 117.395 505.471 150.717 505.471C185.449 505.471 210.002 490.566 226.153 469.091C242.548 447.292 250.515 418.328 250.515 390.703C250.515 389.131 250.526 387.56 250.537 385.989C250.601 376.752 250.664 367.545 248.519 358.269V355.275L246.973 147.272C228.996 152.503 211.828 158.82 195.626 166.197V284.56L182.536 280.267C173.133 277.183 162.558 275.437 150.717 275.437C116.644 275.437 81.8918 289.924 55.0101 311.465C46.646 335.805 42.1709 362.417 42.1709 391.202ZM384.478 645.199C265.635 645.199 144.104 602.622 82.829 518.393C90.4107 522.557 99.9334 526.369 113.792 530.42C211.095 558.863 277.96 477.748 285.944 396.413C286.59 389.824 286.389 378.903 286.173 367.24L286.173 367.239C286.06 361.12 285.944 354.797 285.944 348.788C285.944 336.486 283.22 211.538 281.61 138.739C314.079 132.113 348.635 128.734 384.478 128.734C425.801 128.734 465.415 133.226 502.091 142.005L502.006 143.204L525.958 150.138V150.689H527.863L555.808 158.778C658.026 198.934 726.784 278.37 726.784 391.202C726.784 559.655 552.931 645.199 384.478 645.199ZM527.863 150.689L525.958 150.138V148.45C528.364 149.177 530.756 149.923 533.132 150.689H527.863ZM632.84 402.941C632.84 445.264 615.132 479.573 593.287 479.573C571.443 479.573 553.735 445.264 553.735 402.941C553.735 360.617 571.443 326.308 593.287 326.308C615.132 326.308 632.84 360.617 632.84 402.941ZM440.021 402.941C440.021 445.264 422.313 479.573 400.468 479.573C378.624 479.573 360.916 445.264 360.916 402.941C360.916 360.617 378.624 326.308 400.468 326.308C422.313 326.308 440.021 360.617 440.021 402.941Z" fill="#FFB800"/>
</svg>
